<svg width="45" height="45" viewBox="0 0 178 130" fill="none" xmlns="http://www.w3.org/2000/svg">
<g clip-path="url(#clip0_1147_11326)">
<path d="M0.41748 96.4476H177.583" stroke="black" stroke-linecap="round" stroke-linejoin="round"/>
<path d="M61.9686 106.983L22.106 106.574C21.3649 106.569 20.6322 106.417 19.9496 106.128C19.267 105.84 18.6478 105.42 18.1277 104.892C17.6075 104.364 17.1965 103.738 16.9179 103.052C16.6394 102.365 16.4988 101.63 16.5043 100.889L16.6546 83.3577C16.6678 81.8624 17.274 80.4335 18.3399 79.3848C19.4059 78.3361 20.8445 77.7533 22.3398 77.7644L62.2106 78.1651C62.5445 78.165 62.8751 78.2317 63.1828 78.3612C63.4905 78.4907 63.7692 78.6804 64.0025 78.9192C64.2359 79.158 64.4192 79.441 64.5415 79.7516C64.6639 80.0623 64.7229 80.3942 64.7151 80.728L64.5231 104.462C64.5165 105.134 64.2442 105.777 63.7656 106.249C63.287 106.721 62.641 106.985 61.9686 106.983Z" fill="white" stroke="black" stroke-miterlimit="10"/>
<path d="M64.4982 92.2986H16.5796" stroke="black" stroke-miterlimit="10"/>
<path d="M72.8796 48.4623H142.754C145.845 48.4601 148.906 49.067 151.762 50.2482C154.618 51.4295 157.213 53.162 159.4 55.3467C161.586 57.5315 163.32 60.1256 164.503 62.9809C165.687 65.8362 166.296 68.8967 166.296 71.9875V102.951C166.296 105.13 165.43 107.219 163.89 108.759C162.349 110.3 160.26 111.165 158.081 111.165H72.8796V48.4623Z" fill="#6097A7" stroke="black" stroke-linecap="round" stroke-linejoin="round"/>
<path d="M58.6125 48.4623H128.512C134.751 48.4623 140.735 50.9408 145.147 55.3527C149.559 59.7645 152.037 65.7482 152.037 71.9875V102.634C152.037 104.905 151.135 107.084 149.528 108.69C147.922 110.296 145.743 111.199 143.472 111.199H58.6125V48.4623Z" fill="#6097A7" stroke="black" stroke-linecap="round" stroke-linejoin="round"/>
<path d="M101.289 48.3954V41.959C101.289 39.1123 103.977 36.7998 107.291 36.7998H119.73C123.069 36.7998 125.732 39.1123 125.732 41.959V48.3954" stroke="black" stroke-miterlimit="10"/>
<path d="M91.9635 1.63727L91.2039 42.3931" stroke="black" stroke-miterlimit="10"/>
<path d="M71.3437 1.63727L70.584 42.3931" stroke="black" stroke-miterlimit="10"/>
<path d="M94.1091 0.685608H69.2649C67.5774 0.685608 66.2095 2.05357 66.2095 3.74104C66.2095 5.42851 67.5774 6.79648 69.2649 6.79648H94.1091C95.7966 6.79648 97.1645 5.42851 97.1645 3.74104C97.1645 2.05357 95.7966 0.685608 94.1091 0.685608Z" fill="white" stroke="black" stroke-miterlimit="10"/>
<path d="M105.106 24.9175L70.2202 24.6314C62.8389 24.5708 56.8061 30.5054 56.7456 37.8867L56.1579 109.528C56.0973 116.91 62.032 122.943 69.4133 123.003L104.299 123.289C111.68 123.35 117.713 117.415 117.774 110.034L118.361 38.3922C118.422 31.0109 112.487 24.9781 105.106 24.9175Z" fill="#E67B5E" stroke="black" stroke-linecap="round" stroke-linejoin="round"/>
<path d="M88.26 24.9212L52.7563 24.63C45.5456 24.5708 39.6522 30.3683 39.5931 37.579L39.0003 109.838C38.9412 117.049 44.7387 122.943 51.9494 123.002L87.453 123.293C94.6637 123.352 100.557 117.555 100.616 110.344L101.209 38.0845C101.268 30.8738 95.4707 24.9804 88.26 24.9212Z" fill="#E67B5E" stroke="black" stroke-linecap="round" stroke-linejoin="round"/>
<path d="M142.061 119.121L121.808 129.198L109.136 94.1352L128.545 84.493C129.455 84.0088 130.415 84.1507 130.674 84.852L142.604 117.886C142.651 118.003 142.674 118.128 142.672 118.255C142.67 118.381 142.644 118.506 142.593 118.621C142.542 118.737 142.469 118.842 142.378 118.929C142.287 119.016 142.179 119.084 142.061 119.13V119.121Z" fill="white" stroke="black" stroke-linecap="round" stroke-linejoin="round"/>
<path d="M144.924 119.096L121.808 129.189L109.136 94.1268L132.26 84.0339C132.38 83.9932 132.506 83.9764 132.632 83.9846C132.758 83.9928 132.881 84.0258 132.994 84.0816C133.108 84.1374 133.209 84.2151 133.292 84.31C133.375 84.4049 133.439 84.5154 133.479 84.6349L145.475 117.861C145.565 118.098 145.558 118.361 145.454 118.592C145.351 118.823 145.161 119.005 144.924 119.096Z" fill="#F6EFEA"/>
<path d="M109.153 94.1185L133.053 85.4864C133.557 85.3038 134.113 85.3287 134.598 85.5557C135.083 85.7827 135.459 86.1932 135.641 86.6969L146.853 117.769C147.058 118.326 147.033 118.941 146.784 119.48C146.535 120.018 146.082 120.436 145.526 120.641L121.825 129.198L109.161 94.1352L109.153 94.1185Z" fill="#F3F2F0" stroke="black" stroke-miterlimit="10"/>
<path d="M134.013 105.597C133.243 105.3 132.433 105.123 131.609 105.071C131.57 103.415 131.26 101.777 130.691 100.221L134.531 98.8268C134.924 99.9286 135.081 101.101 134.992 102.267C134.902 103.433 134.569 104.568 134.013 105.597ZM131.617 105.247C132.407 105.305 133.183 105.479 133.921 105.764C133.111 107.226 131.877 108.407 130.382 109.154C131.272 108.054 131.713 106.658 131.617 105.247ZM123.62 109.504C124.009 108.815 124.492 108.182 125.056 107.626C125.889 108.773 127.122 109.565 128.512 109.846C126.883 110.218 125.181 110.098 123.62 109.504ZM118.703 104.579L122.526 103.185C123.078 104.746 123.891 106.203 124.93 107.492C124.347 108.076 123.842 108.733 123.428 109.446C122.345 109.007 121.366 108.348 120.553 107.51C119.739 106.672 119.109 105.674 118.703 104.579ZM119.179 97.6748C119.948 97.9756 120.759 98.1558 121.583 98.2091C121.623 99.8561 121.931 101.486 122.493 103.034L118.653 104.437C118.262 103.336 118.107 102.165 118.198 101C118.289 99.8352 118.623 98.7023 119.179 97.6748ZM121.575 98.0337C120.783 97.9748 120.004 97.8005 119.262 97.5162C120.076 96.0577 121.309 94.877 122.802 94.1268C121.915 95.228 121.477 96.6233 121.575 98.0337ZM129.572 93.7762C129.177 94.4615 128.691 95.0905 128.128 95.6462C127.288 94.512 126.05 93.7368 124.663 93.4756C126.294 93.0957 128.002 93.2149 129.564 93.8179L129.572 93.7762ZM126.642 101.515L125.248 97.6497C126.315 97.2438 127.293 96.6342 128.128 95.8549C129.154 97.1458 129.959 98.5988 130.507 100.154L126.642 101.515ZM128.103 105.539L126.7 101.674L130.524 100.288C131.093 101.814 131.401 103.426 131.434 105.055C130.299 104.985 129.163 105.15 128.094 105.539H128.103ZM128.161 105.697C129.216 105.326 130.334 105.169 131.45 105.238C131.45 107.375 130.774 109.028 129.547 109.529L128.161 105.697ZM127.994 105.756L129.388 109.588C128.128 109.988 126.558 109.145 125.214 107.509C126.012 106.737 126.962 106.14 128.003 105.756H127.994ZM126.533 101.732L127.936 105.581C126.867 105.983 125.888 106.593 125.056 107.375C124.041 106.098 123.242 104.662 122.693 103.126L126.533 101.732ZM125.089 97.7415L126.475 101.573L122.651 102.959C122.094 101.435 121.786 99.8312 121.741 98.2091C122.875 98.2905 124.013 98.1312 125.081 97.7415H125.089ZM125.031 97.583C123.976 97.9532 122.857 98.1093 121.741 98.0421C121.741 95.905 122.409 94.252 123.637 93.7511L125.031 97.583ZM123.803 93.6927C125.064 93.292 126.625 94.1268 127.978 95.7714C127.16 96.534 126.202 97.1295 125.156 97.5245L123.803 93.6927ZM134.472 98.7016L130.632 100.096C130.067 98.5498 129.258 97.1041 128.236 95.8131C128.819 95.2294 129.324 94.5728 129.739 93.8596C130.822 94.2913 131.803 94.9452 132.619 95.7792C133.434 96.6131 134.065 97.6087 134.472 98.7016ZM123.62 93.5925C122.023 94.1726 120.635 95.2128 119.629 96.5819C118.624 97.9509 118.047 99.5873 117.972 101.284C117.896 102.981 118.325 104.662 119.205 106.115C120.084 107.568 121.375 108.728 122.914 109.447C124.452 110.167 126.169 110.415 127.849 110.158C129.528 109.902 131.093 109.154 132.347 108.009C133.601 106.863 134.488 105.371 134.894 103.722C135.301 102.073 135.209 100.341 134.631 98.7433C133.86 96.6044 132.272 94.8582 130.217 93.8866C128.161 92.915 125.804 92.7973 123.662 93.5591L123.62 93.5925Z" fill="black" stroke="black" stroke-width="0.7" stroke-linecap="round" stroke-linejoin="round"/>
<path d="M56.7676 70.7352C56.7676 70.7352 70.7174 68.7734 70.9595 54.3895C71.2016 40.0055 57.8862 35.4307 60.2821 24.336" stroke="black" stroke-miterlimit="10"/>
<path d="M24.4852 58.8558C24.4852 58.8558 20.837 41.6418 39.2531 40.5565" stroke="black" stroke-miterlimit="10"/>
<path d="M58.3788 60.4085L30.8298 48.4038C30.192 48.1263 29.4702 48.1128 28.8225 48.3663C28.1747 48.6198 27.6538 49.1195 27.3737 49.7562L25.3368 54.4145L20.4113 65.7179C20.1343 66.3568 20.1221 67.0795 20.3772 67.7274C20.6323 68.3753 21.1339 68.8956 21.7721 69.1741L49.3211 81.1871C49.9601 81.465 50.6831 81.4787 51.3322 81.2253C51.9813 80.9719 52.5038 80.472 52.7856 79.8347L57.711 68.5313L59.7396 63.873C60.0146 63.2327 60.0261 62.5097 59.7713 61.8611C59.5165 61.2124 59.0161 60.6905 58.3788 60.4085Z" fill="#F3F2F0" stroke="black" stroke-miterlimit="10"/>
<path d="M47.4344 68.2057C46.7919 69.6771 45.7273 70.9248 44.3753 71.7909C43.0234 72.657 41.4449 73.1025 39.8397 73.0711C38.2344 73.0397 36.6745 72.5329 35.3574 71.6146C34.0403 70.6964 33.0253 69.4081 32.4407 67.9127C31.8562 66.4173 31.7284 64.7821 32.0735 63.2141C32.4186 61.6461 33.221 60.2157 34.3794 59.1039C35.5378 57.9921 36.9999 57.249 38.5808 56.9686C40.1617 56.6881 41.7902 56.8829 43.2604 57.5284C45.2283 58.3925 46.7732 60.002 47.5557 62.0038C48.3383 64.0056 48.2946 66.2361 47.4344 68.2057Z" fill="white" stroke="black" stroke-miterlimit="10"/>
<path d="M45.0302 67.1538C44.5967 68.1481 43.878 68.9914 42.9653 69.5773C42.0525 70.1632 40.9865 70.4653 39.902 70.4454C38.8176 70.4255 37.7634 70.0845 36.8727 69.4656C35.982 68.8466 35.2948 67.9775 34.898 66.968C34.5012 65.9585 34.4126 64.8541 34.6435 63.7943C34.8743 62.7345 35.4142 61.767 36.1949 61.014C36.9755 60.261 37.9619 59.7563 39.0293 59.5639C40.0967 59.3714 41.1973 59.4997 42.1918 59.9327C42.8524 60.2203 43.45 60.6352 43.9503 61.1538C44.4505 61.6724 44.8436 62.2845 45.1072 62.9551C45.3708 63.6257 45.4996 64.3417 45.4864 65.0621C45.4732 65.7826 45.3182 66.4933 45.0302 67.1538V67.1538Z" stroke="black" stroke-miterlimit="10"/>
<path d="M48.3443 52.3859L46.6413 51.6429L45.6478 51.2088L43.9448 50.4658L40.6807 52.6948L44.3121 54.2726L45.3056 54.7067L48.937 56.2929L48.3443 52.3859Z" fill="white" stroke="black" stroke-linecap="round" stroke-linejoin="round"/>
</g>
<defs>
<clipPath id="clip0_1147_11326">
<rect width="178" height="129.464" fill="white" transform="translate(0 0.268188)"/>
</clipPath>
</defs>
</svg>
