<svg width="45" height="45" viewBox="0 0 178 126" fill="none" xmlns="http://www.w3.org/2000/svg">
<g clip-path="url(#clip0_1147_11291)">
<path d="M65.254 97.5978H177.581" stroke="black" stroke-linecap="round" stroke-linejoin="round"/>
<path d="M0.419312 97.5978H17.2591" stroke="black" stroke-linecap="round" stroke-linejoin="round"/>
<path d="M144.102 24.3767H108.016C99.8505 24.3767 93.231 30.9962 93.231 39.1618V104.592C93.231 112.758 99.8505 119.377 108.016 119.377H144.102C152.268 119.377 158.888 112.758 158.888 104.592V39.1618C158.888 30.9962 152.268 24.3767 144.102 24.3767Z" fill="#6097A7" stroke="black" stroke-miterlimit="10"/>
<path d="M149.084 33.6268H103.026V69.2604H149.084V33.6268Z" fill="white" stroke="black" stroke-miterlimit="10"/>
<path d="M103.496 78.2925H113.601" stroke="black" stroke-linecap="round" stroke-linejoin="round"/>
<path d="M120.637 78.2925H130.743" stroke="black" stroke-linecap="round" stroke-linejoin="round"/>
<path d="M137.779 78.2925H147.876" stroke="black" stroke-linecap="round" stroke-linejoin="round"/>
<path d="M103.496 87.8361H113.601" stroke="black" stroke-linecap="round" stroke-linejoin="round"/>
<path d="M120.637 87.8361H130.743" stroke="black" stroke-linecap="round" stroke-linejoin="round"/>
<path d="M137.779 87.8361H147.876" stroke="black" stroke-linecap="round" stroke-linejoin="round"/>
<path d="M103.496 97.7991H113.601" stroke="black" stroke-linecap="round" stroke-linejoin="round"/>
<path d="M120.637 97.7991H130.743" stroke="black" stroke-linecap="round" stroke-linejoin="round"/>
<path d="M137.779 97.7991H147.876" stroke="black" stroke-linecap="round" stroke-linejoin="round"/>
<path d="M103.496 107.762H113.601" stroke="black" stroke-linecap="round" stroke-linejoin="round"/>
<path d="M120.637 107.762H130.743" stroke="black" stroke-linecap="round" stroke-linejoin="round"/>
<path d="M137.779 107.762H147.876" stroke="black" stroke-linecap="round" stroke-linejoin="round"/>
<path d="M74.1017 54.5675C72.3153 56.2117 70.3015 57.59 68.1222 58.6601C66.6714 59.4987 65.1703 60.2954 63.5014 61.4275C59.9875 63.8009 56.6162 66.6606 58.176 69.881C58.2792 70.0929 58.4058 70.2927 58.5534 70.4764C59.9456 72.2291 62.6376 71.2563 65.4722 70.2332C66.4114 69.8894 67.3843 69.5371 68.3235 69.2772C70.6146 68.5893 72.797 67.5814 74.8061 66.2832C75.3009 65.9897 75.7873 65.6962 76.2989 65.4446L77.2717 64.8995C79.3599 63.7422 81.3307 62.652 82.6809 60.9411C83.8215 59.4735 83.8131 56.748 81.5823 54.4417C79.7709 52.5548 77.7833 52.0684 75.0409 51.3891C74.4707 51.2465 73.8669 51.104 73.2295 50.9279" stroke="black" stroke-miterlimit="10"/>
<path d="M65.1618 70.4009C61.5976 72.0279 59.2914 72.5395 57.0439 74.5186C56.5252 74.9009 56.1137 75.4104 55.8493 75.998C55.5849 76.5856 55.4764 77.2314 55.5343 77.8732C55.6102 78.4865 55.8539 79.0669 56.2388 79.5504C56.4682 79.8347 56.7537 80.0687 57.0774 80.2381C58.1676 80.8084 60.0797 80.691 62.604 79.9027C63.3923 79.6594 64.1639 79.4079 64.9606 79.1479C66.8139 78.5525 68.726 77.9403 71.3593 77.1855L71.8709 77.0429C75.7286 75.9359 79.7121 74.8038 81.0372 73.1768C83.1505 70.5938 82.4628 67.2561 78.9825 64.0106" stroke="black" stroke-linecap="round" stroke-linejoin="round"/>
<path d="M79.1251 74.6108C79.7564 74.6285 80.3772 74.7776 80.9478 75.0486C81.5183 75.3196 82.0262 75.7065 82.4388 76.1847C82.8515 76.6629 83.16 77.2218 83.3446 77.8258C83.5293 78.4299 83.586 79.0658 83.5111 79.693C82.8989 83.5255 78.6638 87.2407 74.1855 91.1403L73.9843 91.3164C69.3969 95.2018 64.3223 98.4721 58.8889 101.045C54.1146 103.195 49.8545 106.34 46.3932 110.27C43.5083 113.423 39.1306 119.025 34.0569 125.508" stroke="black" stroke-linecap="round" stroke-linejoin="round"/>
<path d="M60.3313 80.4981C59.3585 81.5129 59.2579 81.8651 59.4927 82.7456C59.5741 83.0246 59.711 83.2841 59.8952 83.5088C60.5776 84.2234 61.4508 84.727 62.4111 84.9596C64.558 85.5131 67.3758 85.2531 69.6402 85.0435L70.6465 84.9596C72.4716 84.7038 74.2686 84.277 76.0138 83.6849" stroke="black" stroke-linecap="round" stroke-linejoin="round"/>
<path d="M65.6399 52.2948L65.7069 52.3535C68.2228 54.165 70.4033 52.9322 73.7327 51.062C74.3281 50.7266 74.9571 50.3744 75.6364 50.0138C77.3137 49.108 78.9909 48.3365 80.534 47.5985C83.0792 46.458 85.5473 45.1525 87.9224 43.6905C89.9419 42.4316 91.8151 40.9521 93.5077 39.2792C93.5691 39.2165 93.6035 39.1322 93.6035 39.0444C93.6035 38.9566 93.5691 38.8723 93.5077 38.8096C93.4765 38.7779 93.4393 38.7527 93.3982 38.7356C93.3572 38.7184 93.3132 38.7095 93.2687 38.7095C93.2242 38.7095 93.1801 38.7184 93.1391 38.7356C93.098 38.7527 93.0609 38.7779 93.0296 38.8096C91.3783 40.4444 89.55 41.8902 87.5785 43.1202C85.224 44.5653 82.7785 45.8567 80.2573 46.9863C78.6806 47.7243 77.0453 48.4958 75.3261 49.4183C74.6468 49.7789 74.0094 50.1395 73.414 50.4666C70.1936 52.278 68.248 53.3683 66.1095 51.8084C66.0383 51.755 65.9489 51.7321 65.8608 51.7447C65.7727 51.7573 65.6933 51.8044 65.6399 51.8755C65.5923 51.935 65.5663 52.009 65.5663 52.0852C65.5663 52.1614 65.5923 52.2353 65.6399 52.2948Z" fill="black" stroke="black" stroke-width="0.5" stroke-miterlimit="10"/>
<path d="M134.349 51.6574L74.6551 62.1236C72.5879 62.4841 70.462 62.0091 68.7448 60.803C67.0276 59.5968 65.8595 57.7582 65.4972 55.6913L59.2746 20.2338C58.9139 18.1656 59.3887 16.0387 60.5947 14.3202C61.8006 12.6016 63.6392 11.4318 65.7069 11.0676L125.392 0.601423C127.46 0.240599 129.585 0.714252 131.304 1.91849C133.022 3.12274 134.193 4.95927 134.559 7.02536L140.781 42.4912C141.142 44.5595 140.667 46.6863 139.461 48.4049C138.255 50.1234 136.417 51.2932 134.349 51.6574Z" fill="#F3F2F0" stroke="black" stroke-miterlimit="10"/>
<path d="M135.268 10.8678L59.9623 23.9436L62.2305 37.0194L137.536 23.9436L135.268 10.8678Z" fill="#E77B5E" stroke="black" stroke-width="0.994636" stroke-miterlimit="10"/>
<path d="M73.2798 45.0993L127.003 35.6731" stroke="black" stroke-linecap="round" stroke-linejoin="round"/>
<path d="M74.412 51.5485L107.832 45.6864" stroke="black" stroke-linecap="round" stroke-linejoin="round"/>
<path d="M59.3165 40.8978L68.6337 35.3377L71.7115 34.7003L73.2211 36.1763L72.7095 40.6127L68.0048 46.936L61.3796 52.1691L59.3165 40.8978Z" fill="white"/>
<path d="M12.6802 102.688C24.1695 90.3437 31.5746 82.2257 33.428 78.2002C34.3337 76.2378 35.0381 74.2335 35.7929 72.1118C36.9322 68.6224 38.3658 65.2361 40.0783 61.9895C43.3238 56.0771 45.8901 51.3975 49.7394 48.412C51.1735 47.305 52.5572 46.1225 53.9326 44.982C55.4075 43.6635 56.9528 42.4261 58.5618 41.2752C60.5075 39.9753 62.4112 38.8683 64.6251 37.5936L65.9753 36.8053L66.8895 36.2685C69.2712 34.8429 71.3342 33.6101 72.8102 35.388C74.1017 36.9562 73.8753 40.3695 70.2943 44.2188C68.5884 46.0412 66.7188 47.703 64.709 49.1835C63.5601 50.0724 62.4782 50.9195 61.3545 51.9678L61.0022 52.2781C58.2348 54.794 56.2304 56.6725 56.0292 60.3625C56.0292 60.8489 55.9788 61.4276 55.962 62.0901C55.8027 66.9458 55.5176 75.9862 51.1819 81.8651" stroke="black" stroke-linecap="round" stroke-linejoin="round"/>
</g>
<defs>
<clipPath id="clip0_1147_11291">
<rect width="178" height="125.887" fill="white" transform="translate(0 0.0563354)"/>
</clipPath>
</defs>
</svg>
